<?xml version="1.0" encoding="UTF-8" standalone="no"?>
<svg
   xmlns:dc="http://purl.org/dc/elements/1.1/"
   xmlns:cc="http://creativecommons.org/ns#"
   xmlns:rdf="http://www.w3.org/1999/02/22-rdf-syntax-ns#"
   xmlns:svg="http://www.w3.org/2000/svg"
   xmlns="http://www.w3.org/2000/svg"
   xmlns:xlink="http://www.w3.org/1999/xlink"
   xmlns:sodipodi="http://sodipodi.sourceforge.net/DTD/sodipodi-0.dtd"
   xmlns:inkscape="http://www.inkscape.org/namespaces/inkscape"
   width="93mm"
   height="26mm"
   viewBox="0 0 93 26"
   version="1.1"
   id="svg8"
   sodipodi:docname="logo.svg"
   inkscape:export-filename="C:\Users\kwicki\repos\node-react-ecommerce\uploads\logo.png"
   inkscape:export-xdpi="96"
   inkscape:export-ydpi="96"
   inkscape:version="1.0 (4035a4fb49, 2020-05-01)">
  <defs
     id="defs2">
    <linearGradient
       inkscape:collect="always"
       id="linearGradient1437">
      <stop
         style="stop-color:#000000;stop-opacity:1;"
         offset="0"
         id="stop1433" />
      <stop
         style="stop-color:#000000;stop-opacity:0;"
         offset="1"
         id="stop1435" />
    </linearGradient>
    <linearGradient
       inkscape:collect="always"
       id="linearGradient1425">
      <stop
         style="stop-color:#79c7df;stop-opacity:1;"
         offset="0"
         id="stop1421" />
      <stop
         style="stop-color:#79c7df;stop-opacity:0"
         offset="1"
         id="stop1423" />
    </linearGradient>
    <linearGradient
       inkscape:collect="always"
       xlink:href="#linearGradient1425"
       id="linearGradient1431"
       x1="58.406761"
       y1="114.11335"
       x2="101.51028"
       y2="163.38016"
       gradientUnits="userSpaceOnUse" />
    <linearGradient
       inkscape:collect="always"
       xlink:href="#linearGradient1437"
       id="linearGradient1439"
       x1="54.626999"
       y1="140.57169"
       x2="125.29028"
       y2="140.57169"
       gradientUnits="userSpaceOnUse" />
    <linearGradient
       inkscape:collect="always"
       xlink:href="#linearGradient1425"
       id="linearGradient1449"
       x1="87.998764"
       y1="136.81378"
       x2="135.2621"
       y2="183.76433"
       gradientUnits="userSpaceOnUse"
       gradientTransform="matrix(0.30067746,0,0,0.30297657,50.398179,105.55131)" />
    <linearGradient
       inkscape:collect="always"
       xlink:href="#linearGradient1425"
       id="linearGradient1465"
       x1="27.412714"
       y1="91.812759"
       x2="37.31126"
       y2="103.31064"
       gradientUnits="userSpaceOnUse"
       gradientTransform="matrix(0.30067746,0,0,0.30297657,50.398179,105.55131)" />
    <linearGradient
       inkscape:collect="always"
       xlink:href="#linearGradient1425"
       id="linearGradient1830"
       gradientUnits="userSpaceOnUse"
       gradientTransform="matrix(0.30067746,0,0,0.30297657,50.398179,105.55131)"
       x1="87.998764"
       y1="136.81378"
       x2="135.2621"
       y2="183.76433" />
    <linearGradient
       inkscape:collect="always"
       xlink:href="#linearGradient1425"
       id="linearGradient1832"
       gradientUnits="userSpaceOnUse"
       gradientTransform="matrix(0.30067746,0,0,0.30297657,50.398179,105.55131)"
       x1="27.412714"
       y1="91.812759"
       x2="37.31126"
       y2="103.31064" />
    <filter
       height="1.0000961"
       y="-4.8028247e-05"
       width="1.0000234"
       x="-1.1706938e-05"
       id="filter1450"
       style="color-interpolation-filters:sRGB"
       inkscape:collect="always">
      <feGaussianBlur
         id="feGaussianBlur1452"
         stdDeviation="0.00055112286"
         inkscape:collect="always" />
    </filter>
  </defs>
  <sodipodi:namedview
     width="104mm"
     id="base"
     pagecolor="#ffffff"
     bordercolor="#666666"
     borderopacity="1.0"
     inkscape:pageopacity="0.0"
     inkscape:pageshadow="2"
     inkscape:zoom="0.7"
     inkscape:cx="421.76867"
     inkscape:cy="492.51471"
     inkscape:document-units="px"
     inkscape:current-layer="layer1"
     inkscape:document-rotation="0"
     showgrid="false"
     inkscape:window-width="1838"
     inkscape:window-height="1051"
     inkscape:window-x="1911"
     inkscape:window-y="-9"
     inkscape:window-maximized="1" />
  <metadata
     id="metadata5">
    <rdf:RDF>
      <cc:Work
         rdf:about="">
        <dc:format>image/svg+xml</dc:format>
        <dc:type
           rdf:resource="http://purl.org/dc/dcmitype/StillImage" />
        <dc:title></dc:title>
      </cc:Work>
    </rdf:RDF>
  </metadata>
  <g
     inkscape:label="Warstwa 1"
     inkscape:groupmode="layer"
     id="layer1">
    <g
       style="filter:url(#filter1450)"
       id="g1828"
       transform="matrix(0.81130571,0,0,0.86664634,-53.377961,-115.7884)">
      <path
         inkscape:transform-center-y="-2.4332518"
         inkscape:transform-center-x="1.2889408"
         id="path1419"
         d="m 69.732701,158.42996 -0.639275,-0.41512 -0.511421,-0.58691 -0.397772,-0.73005 -0.383564,-1.29549 -0.34805,-1.04498 -0.198886,-1.04497 -0.127854,-0.60837 -0.06392,-0.83742 -0.142061,-1.10939 -0.04973,-0.9233 -0.0071,-1.0593 0.01421,-1.48873 v -0.57258 l 0.08524,-1.20959 0.134958,-0.88753 0.09234,-0.62984 0.06392,-1.01634 0.213092,-1.15235 0.269916,-1.03782 0.234401,-0.64415 0.198885,-0.6227 0.411978,-0.68711 0.34805,-0.39365 0.340946,-0.27198 0.404874,-0.22904 0.568245,-0.0787 0.589555,0.0429 0.688996,0.0143 0.596656,0.0787 0.596658,0.1002 0.845263,0.10736 0.738718,0.17178 0.738718,0.17893 0.774233,0.21473 0.646378,0.19324 0.894985,0.2863 0.774233,0.32209 0.6961,0.32923 0.6961,0.35071 0.774232,0.39366 0.483011,0.26482 0.639273,0.37218 0.48301,0.34356 0.653479,0.3865 0.52563,0.34355 0.369359,0.25767 0.433283,0.30776 0.369359,0.35787 0.461697,0.35071 0.426184,0.38651 0.36226,0.3006 0.319632,0.35787 0.291228,0.3364 0.31964,0.31492 0.298327,0.35071 0.241501,0.35787 0.241509,0.34355 0.220196,0.35787 0.277013,0.45807 0.142064,0.34355 0.106544,0.2362 0.07107,0.40082 -0.01417,0.27197 -0.08524,0.29345 -0.248608,0.37935 -0.156263,0.2505 -0.213096,0.37934 -0.213088,0.33639 -0.291228,0.30063 -0.326739,0.35786 -0.29122,0.30061 -0.35516,0.41513 -0.397772,0.32208 -0.319633,0.29345 -0.383565,0.27914 -0.312533,0.29345 -0.340946,0.26481 -0.397772,0.27915 -0.333846,0.3006 -0.419078,0.30778 -0.340954,0.23619 -0.504308,0.34355 -0.383565,0.2362 -0.348053,0.23619 -0.433284,0.20756 -0.497219,0.29346 -0.355152,0.20755 -0.404873,0.20757 -0.312537,0.15747 -0.348047,0.12883 -0.404875,0.19324 -0.36936,0.17179 -0.504317,0.2004 -0.518522,0.27197 -0.397772,0.136 -0.397771,0.15747 -0.326741,0.12167 -0.60376,0.22903 -0.504317,0.13599 -0.546935,0.14315 -0.468802,0.12167 -0.454596,0.10737 -0.355152,0.0715 -0.426183,0.12884 -0.419081,0.0572 -0.475904,0.0644 -0.60376,0.0358 -0.36936,0.007 -0.67479,0.0215 z"
         style="fill:url(#linearGradient1830);fill-opacity:1;stroke:url(#linearGradient1832);stroke-width:0.0798579px;stroke-linecap:butt;stroke-linejoin:miter;stroke-opacity:1" />
      <text
         transform="scale(0.97130126,1.0295467)"
         id="text1469"
         y="153.65332"
         x="91.165764"
         style="font-style:normal;font-variant:normal;font-weight:normal;font-stretch:normal;font-size:31.7032px;line-height:1.25;font-family:SimSun;-inkscape-font-specification:'SimSun, Normal';font-variant-ligatures:normal;font-variant-caps:normal;font-variant-numeric:normal;font-variant-east-asian:normal;opacity:0.793277;fill:#000000;fill-opacity:1;stroke:none;stroke-width:0.792581;stroke-opacity:1"
         xml:space="preserve"><tspan
           style="font-style:normal;font-variant:normal;font-weight:normal;font-stretch:normal;font-size:31.7032px;font-family:SimSun;-inkscape-font-specification:'SimSun, Normal';font-variant-ligatures:normal;font-variant-caps:normal;font-variant-numeric:normal;font-variant-east-asian:normal;stroke:none;stroke-width:0.792581;stroke-opacity:1"
           y="153.65332"
           x="91.165764"
           id="tspan1467"
           sodipodi:role="line">Shoppy</tspan></text>
    </g>
  </g>
</svg>
